<svg width="30" height="30" viewBox="0 0 30 30" fill="none" xmlns="http://www.w3.org/2000/svg">
<path d="M27.3652 12.0057L21.6188 17.7519C20.9434 18.4273 20.1535 18.9366 19.2685 19.2685C18.9366 20.1535 18.4273 20.9434 17.7519 21.6188L12.0056 27.3652C10.7541 28.6167 9.0901 29.3059 7.32024 29.3059C5.55037 29.3059 3.88632 28.6167 2.63477 27.3652C1.3831 26.1137 0.693863 24.4496 0.693863 22.6798C0.693863 20.9099 1.3831 19.2458 2.63465 17.9944L8.38101 12.248C9.05641 11.5726 9.84637 11.0634 10.7314 10.7315C11.0632 9.84649 11.5725 9.05653 12.2479 8.38113L17.9943 2.63477C19.2458 1.38327 20.9098 0.694041 22.6797 0.694041C24.4496 0.694041 26.1136 1.38327 27.3651 2.63483C29.9487 5.21832 29.9487 9.4221 27.3652 12.0057ZM9.01962 12.8863L3.27302 18.6326C2.19198 19.7136 1.59667 21.1509 1.59667 22.6797C1.59667 24.2085 2.19203 25.6458 3.27302 26.7268C4.35401 27.8079 5.79136 28.4032 7.32018 28.4032C8.84899 28.4032 10.2862 27.8078 11.3673 26.7268L17.1136 20.9805C17.5313 20.5627 17.8756 20.0944 18.1426 19.5818C18.1121 19.5874 18.0814 19.5922 18.0508 19.5974C18.0303 19.6009 18.0099 19.6046 17.9893 19.6079C17.9094 19.6208 17.8294 19.6324 17.749 19.6424C17.7414 19.6433 17.7337 19.644 17.7261 19.6449C17.6524 19.6538 17.5785 19.6612 17.5044 19.6675C17.4844 19.6692 17.4644 19.6708 17.4443 19.6724C17.3723 19.6779 17.3001 19.6825 17.2278 19.6856C17.2178 19.686 17.2078 19.6868 17.1978 19.6872C17.1159 19.6904 17.0338 19.692 16.9516 19.6922C16.9454 19.6922 16.9394 19.6925 16.9332 19.6925C16.9224 19.6925 16.9115 19.6919 16.9008 19.6918C16.8222 19.6914 16.7435 19.6896 16.6647 19.6865C16.6492 19.6859 16.6338 19.6855 16.6182 19.6848C16.6102 19.6844 16.6023 19.6843 16.5943 19.684C16.4681 19.8512 16.33 20.0101 16.1818 20.1583L10.5449 25.7953C9.69813 26.642 8.57237 27.1083 7.3749 27.1083C6.1554 27.1083 5.01477 26.627 4.16317 25.753C2.4608 24.0058 2.49859 21.1616 4.24737 19.4127L9.84186 13.8182C9.9884 13.6717 10.146 13.5358 10.3114 13.4107L10.3104 13.4001L10.5345 13.2512C10.5792 13.2215 10.6244 13.1927 10.67 13.1647C10.9866 12.9704 11.3247 12.8177 11.6767 12.7082C11.6798 12.7073 11.683 12.7061 11.6861 12.7052C11.7277 12.6924 11.7696 12.6805 11.8116 12.669C11.8209 12.6664 11.8301 12.6634 11.8395 12.6609C11.8783 12.6504 11.9174 12.641 11.9565 12.6316C11.9692 12.6286 11.9817 12.625 11.9944 12.6222C12.0306 12.6138 12.0671 12.6064 12.1035 12.599C12.1193 12.5957 12.135 12.592 12.1508 12.5889C12.1818 12.5829 12.213 12.5779 12.2441 12.5725C12.2657 12.5688 12.2871 12.5646 12.3088 12.5612C12.3337 12.5572 12.3589 12.5542 12.3839 12.5507C12.4119 12.5468 12.4399 12.5424 12.468 12.539C12.4879 12.5366 12.508 12.535 12.5279 12.5328C12.5613 12.5292 12.5947 12.5254 12.6282 12.5225C12.6441 12.5212 12.66 12.5205 12.6759 12.5193C12.7137 12.5165 12.7514 12.5136 12.7893 12.5118C12.8006 12.5113 12.8119 12.5112 12.8231 12.5107C12.8652 12.509 12.9073 12.5073 12.9495 12.5067L12.9526 12.5067L13.4149 12.5087L13.4147 12.5237C14.4609 12.6152 15.4312 13.0678 16.1819 13.8185C16.9271 14.5638 17.3764 15.5224 17.4739 16.5584C17.4827 16.5572 17.4914 16.556 17.5002 16.5547C17.5376 16.5494 17.5748 16.5434 17.6119 16.5369C17.6257 16.5345 17.6395 16.5322 17.6533 16.5297C17.7034 16.5203 17.7532 16.5101 17.8027 16.4987C17.8043 16.4984 17.8059 16.4979 17.8074 16.4975C17.855 16.4864 17.9022 16.474 17.9492 16.4611C17.9633 16.4572 17.9774 16.453 17.9914 16.449C18.0273 16.4385 18.0631 16.4275 18.0987 16.416C18.1128 16.4114 18.1269 16.4069 18.1408 16.4022C18.1848 16.3873 18.2285 16.3717 18.272 16.355C18.2757 16.3536 18.2795 16.3523 18.2832 16.3509C18.3304 16.3327 18.3771 16.3131 18.4234 16.2929C18.436 16.2874 18.4484 16.2816 18.4609 16.2759C18.4954 16.2603 18.5297 16.2443 18.5637 16.2276C18.5774 16.2209 18.591 16.2142 18.6045 16.2073C18.642 16.1883 18.6792 16.1687 18.7161 16.1483C18.7223 16.145 18.7285 16.1418 18.7345 16.1384C18.5626 14.9122 17.9933 13.7663 17.1137 12.8866C16.1685 11.9414 14.9159 11.3544 13.5864 11.234C13.4146 11.2185 13.2398 11.2105 13.0671 11.2105C12.9573 11.2105 12.8479 11.2148 12.7388 11.221C12.2242 11.2502 11.7177 11.3471 11.229 11.5123C10.3919 11.795 9.64856 12.2574 9.01962 12.8863ZM15.5232 19.5399C14.2897 19.2709 13.1482 18.6522 12.2479 17.752C11.3476 16.8517 10.729 15.7102 10.4599 14.4766L4.88557 20.0509C3.48413 21.4523 3.45009 23.7276 4.80957 25.1228C5.48978 25.8209 6.40079 26.2053 7.37479 26.2053C8.33115 26.2053 9.2302 25.8329 9.90643 25.1567L15.5232 19.5399ZM13.434 13.4347C13.5266 14.2311 13.8801 14.9673 14.4563 15.5434C15.0316 16.1187 15.769 16.4729 16.5658 16.5657C16.4733 15.769 16.1197 15.0326 15.5435 14.4563C14.9681 13.881 14.2315 13.5281 13.434 13.4347ZM19.5399 15.5234L25.1143 9.94897C26.5157 8.54759 26.5498 6.27236 25.1902 4.87713C24.51 4.17899 23.599 3.79456 22.625 3.79456C21.6687 3.79456 20.7696 4.16698 20.0933 4.84327L14.4765 10.46C15.7101 10.7291 16.8516 11.3478 17.7519 12.2481C18.6522 13.1483 19.2709 14.2897 19.5399 15.5234ZM26.7268 3.27303C25.6458 2.19198 24.2085 1.59667 22.6797 1.59667C21.1509 1.59667 19.7136 2.19204 18.6325 3.27303L12.8862 9.01939C12.4684 9.4371 12.1241 9.90538 11.8571 10.4181C11.8875 10.4124 11.9181 10.4077 11.9485 10.4025C11.9695 10.399 11.9905 10.3952 12.0115 10.3918C12.0903 10.3792 12.1692 10.3677 12.2485 10.3579C12.2605 10.3564 12.2725 10.3554 12.2846 10.3539C12.3528 10.3458 12.4211 10.3389 12.4896 10.333C12.5138 10.3309 12.5381 10.329 12.5623 10.3271C12.627 10.3223 12.6918 10.3183 12.7566 10.3153C12.7734 10.3145 12.7901 10.3134 12.8069 10.3127C12.8856 10.3097 12.9645 10.3082 13.0435 10.3079C13.0513 10.3079 13.059 10.3074 13.0668 10.3074C13.0668 10.3074 13.0668 10.3074 13.0669 10.3074C13.1129 10.3074 13.1592 10.308 13.2054 10.309C13.2072 10.309 13.2089 10.309 13.2106 10.3091C13.2701 10.3104 13.3296 10.3127 13.3892 10.3155C13.3945 10.3157 13.4 10.3158 13.4054 10.3161C13.5316 10.1488 13.6696 9.98993 13.8178 9.84168L19.4548 4.20472C20.3015 3.35804 21.4273 2.8917 22.6248 2.8917C23.8443 2.8917 24.9849 3.37304 25.8365 4.24702C27.539 5.99421 27.5012 8.83839 25.7523 10.5873L20.1578 16.1818C20.0113 16.3284 19.8537 16.4643 19.6883 16.5893L19.6893 16.5998L19.4653 16.7487C19.4206 16.7784 19.3755 16.8072 19.3299 16.8352C19.3136 16.8452 19.2969 16.8545 19.2805 16.8643C19.2511 16.8819 19.2217 16.8997 19.1919 16.9165C19.168 16.93 19.1437 16.9426 19.1195 16.9557C19.0968 16.968 19.0743 16.9807 19.0514 16.9926C19.0225 17.0076 18.9932 17.0216 18.9641 17.0359C18.9456 17.045 18.9272 17.0546 18.9085 17.0635C18.8776 17.0781 18.8464 17.0918 18.8152 17.1057C18.7979 17.1134 18.7807 17.1217 18.7633 17.1292C18.731 17.1431 18.6984 17.1561 18.6658 17.1692C18.6491 17.1759 18.6327 17.1831 18.616 17.1896C18.5837 17.2022 18.5511 17.2137 18.5185 17.2256C18.5012 17.2318 18.484 17.2386 18.4666 17.2447C18.4342 17.256 18.4014 17.2664 18.3687 17.2769C18.3509 17.2826 18.3333 17.2888 18.3154 17.2944C18.283 17.3044 18.2504 17.3134 18.2178 17.3226C18.1993 17.3279 18.1809 17.3337 18.1623 17.3386C18.1317 17.3469 18.1008 17.3542 18.0701 17.3618C18.0492 17.3669 18.0284 17.3726 18.0074 17.3775C17.9785 17.3842 17.9493 17.39 17.9202 17.3961C17.8972 17.401 17.8742 17.4063 17.8511 17.4108C17.8238 17.4161 17.7963 17.4206 17.7689 17.4254C17.7437 17.4298 17.7186 17.4347 17.6934 17.4387C17.6685 17.4426 17.6433 17.4457 17.6183 17.4492C17.5903 17.4532 17.5623 17.4575 17.5342 17.4609C17.5121 17.4636 17.4897 17.4654 17.4675 17.4678C17.4364 17.4711 17.4053 17.4748 17.374 17.4774C17.3545 17.4791 17.3348 17.48 17.3153 17.4815C17.2812 17.484 17.2471 17.4866 17.2128 17.4883C17.1955 17.4892 17.1782 17.4893 17.161 17.49C17.1261 17.4914 17.0912 17.4929 17.0562 17.4935L17.0494 17.4936C17.0492 17.4936 17.0491 17.4936 17.049 17.4936C17.0488 17.4936 17.0486 17.4936 17.0484 17.4936C17.0283 17.4939 17.0082 17.494 16.988 17.494C15.7901 17.494 14.6644 17.028 13.8182 16.1818C13.0717 15.4353 12.6223 14.475 12.5257 13.442C12.5168 13.4432 12.5079 13.4444 12.499 13.4458C12.4621 13.451 12.4255 13.4569 12.3889 13.4633C12.3746 13.4659 12.3602 13.4682 12.3459 13.4708C12.2963 13.4802 12.2468 13.4902 12.1977 13.5016C12.1945 13.5023 12.1913 13.5033 12.188 13.504C12.1422 13.5148 12.0967 13.5266 12.0514 13.5391C12.0366 13.5432 12.022 13.5475 12.0073 13.5518C11.9721 13.5621 11.9371 13.5728 11.9023 13.5842C11.8876 13.5889 11.8731 13.5935 11.8585 13.5985C11.8154 13.6132 11.7724 13.6285 11.73 13.6447C11.7255 13.6465 11.7209 13.648 11.7164 13.6497C11.6695 13.6679 11.623 13.6873 11.5769 13.7074C11.564 13.7131 11.5511 13.719 11.5384 13.7248C11.5043 13.7402 11.4705 13.7561 11.4369 13.7725C11.4229 13.7793 11.4088 13.7862 11.3949 13.7933C11.358 13.8119 11.3215 13.8313 11.2852 13.8513C11.2786 13.8549 11.2719 13.8583 11.2654 13.862C11.4373 15.0882 12.0066 16.2341 12.8862 17.1137C13.8315 18.0589 15.0841 18.6459 16.4136 18.7663C16.5855 18.7819 16.7604 18.7898 16.9331 18.7898C17.09 18.7898 17.2462 18.7835 17.4016 18.7708C17.4853 18.764 17.5687 18.7551 17.652 18.7446C18.0322 18.6968 18.4066 18.6113 18.7711 18.4881C19.6082 18.2052 20.3516 17.7428 20.9806 17.1138L26.7269 11.3674C28.9584 9.13569 28.9583 5.50461 26.7268 3.27303Z" fill="#FFBB01"/>
<path d="M25.3493 25.9885L21.9472 22.5864L22.5855 21.9481L25.9875 25.3502L25.3493 25.9885Z" fill="#FFBB01"/>
<path d="M17.6679 30H16.7652V25.1887H17.6679V30Z" fill="#FFBB01"/>
<path d="M30 17.6677H25.1887V16.765H30V17.6677Z" fill="#FFBB01"/>
<path d="M7.41273 8.05343L4.01068 4.65137L4.64897 4.01307L8.05102 7.41513L7.41273 8.05343Z" fill="#FFBB01"/>
<path d="M4.81133 13.2349H0V12.3322H4.81133V13.2349Z" fill="#FFBB01"/>
<path d="M13.2349 4.81128H12.3322V-4.95911e-05H13.2349V4.81128Z" fill="#FFBB01"/>
</svg>
