<svg width="32" height="38" viewBox="0 0 32 38" fill="none" xmlns="http://www.w3.org/2000/svg">
<g filter="url(#filter0_d)">
<path d="M25.5 0H6.5C5.12 0.001625 4.00163 1.12 4 2.5V16C4.00163 17.38 5.12 18.4984 6.5 18.5H13.337L12.623 21H11V22H21V21H19.377L18.663 18.5H25.5C26.88 18.4984 27.9984 17.38 28 16V2.5C27.9984 1.12 26.88 0.001625 25.5 0ZM13.663 21L14.377 18.5H17.623L18.337 21H13.663ZM27 16C27 16.8284 26.3284 17.5 25.5 17.5H6.5C5.67156 17.5 5 16.8284 5 16V15H27V16ZM27 14H5V2.5C5 1.67156 5.67156 1 6.5 1H25.5C26.3284 1 27 1.67156 27 2.5V14Z" fill="#FFBB01"/>
<path d="M20 23H6C5.72387 23 5.5 23.2239 5.5 23.5V29.5C5.5 29.7761 5.72387 30 6 30H20C20.2761 30 20.5 29.7761 20.5 29.5V23.5C20.5 23.2239 20.2761 23 20 23ZM19.5 29H6.5V24H19.5V29Z" fill="#FFBB01"/>
<path d="M8.5 27H7.5V28H8.5V27Z" fill="#FFBB01"/>
<path d="M8.5 25H7.5V26H8.5V25Z" fill="#FFBB01"/>
<path d="M10.5 25H9.5V26H10.5V25Z" fill="#FFBB01"/>
<path d="M12.5 25H11.5V26H12.5V25Z" fill="#FFBB01"/>
<path d="M16.5 25H15.5V26H16.5V25Z" fill="#FFBB01"/>
<path d="M14.5 25H13.5V26H14.5V25Z" fill="#FFBB01"/>
<path d="M18.5 27H17.5V28H18.5V27Z" fill="#FFBB01"/>
<path d="M18.5 25H17.5V26H18.5V25Z" fill="#FFBB01"/>
<path d="M16.5 27H9.5V28H16.5V27Z" fill="#FFBB01"/>
<path d="M24 23C22.6193 23 21.5 24.1193 21.5 25.5V27.5C21.5 28.8807 22.6193 30 24 30C25.3807 30 26.5 28.8807 26.5 27.5V25.5C26.5 24.1193 25.3807 23 24 23ZM25.5 27.5C25.5 28.3284 24.8284 29 24 29C23.1716 29 22.5 28.3284 22.5 27.5V25.5C22.5 24.6716 23.1716 24 24 24C24.8284 24 25.5 24.6716 25.5 25.5V27.5Z" fill="#FFBB01"/>
<path d="M24.5 25H23.5V26H24.5V25Z" fill="#FFBB01"/>
<path d="M16.5171 4.37317L14.5152 11.3691L15.4762 11.6441L17.478 4.64815L16.5171 4.37317Z" fill="#FFBB01"/>
<path d="M13.32 5.88397L12.68 5.11597L9.67999 7.61597C9.46792 7.79284 9.43936 8.10809 9.61624 8.32022C9.63555 8.34334 9.65686 8.36472 9.67999 8.38397L12.68 10.884L13.32 10.116L10.781 7.99997L13.32 5.88397Z" fill="#FFBB01"/>
<path d="M22.3838 7.67972C22.3645 7.65659 22.3431 7.63522 22.32 7.61597L19.32 5.11597L18.68 5.88397L21.219 7.99997L18.68 10.116L19.32 10.884L22.32 8.38397C22.5321 8.20709 22.5606 7.89184 22.3838 7.67972Z" fill="#FFBB01"/>
</g>
<defs>
<filter id="filter0_d" x="-3" y="0" width="38" height="38" filterUnits="userSpaceOnUse" color-interpolation-filters="sRGB">
<feFlood flood-opacity="0" result="BackgroundImageFix"/>
<feColorMatrix in="SourceAlpha" type="matrix" values="0 0 0 0 0 0 0 0 0 0 0 0 0 0 0 0 0 0 127 0"/>
<feOffset dy="4"/>
<feGaussianBlur stdDeviation="2"/>
<feColorMatrix type="matrix" values="0 0 0 0 0 0 0 0 0 0 0 0 0 0 0 0 0 0 0.25 0"/>
<feBlend mode="normal" in2="BackgroundImageFix" result="effect1_dropShadow"/>
<feBlend mode="normal" in="SourceGraphic" in2="effect1_dropShadow" result="shape"/>
</filter>
</defs>
</svg>
